<svg t="1683898977024" class="icon" viewBox="0 0 1024 1024" version="1.1" xmlns="http://www.w3.org/2000/svg" p-id="2492" width="200" height="200"><path d="M513.068522 513.628224m-508.819876 0a508.819876 508.819876 0 1 0 1017.639752 0 508.819876 508.819876 0 1 0-1017.639752 0Z" fill="transparent" p-id="2493"></path><path d="M513.068522 513.628224m-355.442485 0a355.442484 355.442484 0 1 0 710.884969 0 355.442484 355.442484 0 1 0-710.884969 0Z" fill="transparent" p-id="2494"></path><path d="M768.470658 845.346981H257.672745c-42.149366 0-76.322981-34.167255-76.322981-76.322981v-510.791553c0-42.155727 34.173615-76.322981 76.322981-76.322981h510.791553c42.155727 0 76.322981 34.167255 76.322982 76.322981v510.791553c0 42.155727-34.167255 76.322981-76.322982 76.322981z" fill="transparent" p-id="2495"></path><path d="M513.068522 526.34872m-250.11677 0a250.11677 250.11677 0 1 0 500.23354 0 250.11677 250.11677 0 1 0-500.23354 0Z" fill="#FE3D50" p-id="2496"></path><path d="M513.068522 513.628224m-250.11677 0a250.11677 250.11677 0 1 0 500.23354 0 250.11677 250.11677 0 1 0-500.23354 0Z" fill="#FE3D50" p-id="2497"></path><path d="M394.418087 451.870211c22.311752-42.772671 67.06882-71.972571 118.650435-71.972571M330.802882 448.906335c26.624-74.955528 98.176795-128.636025 182.26564-128.636024" fill="" p-id="2498"></path><path d="M513.068522 513.628224m-85.717069 0a85.717068 85.717068 0 1 0 171.434137 0 85.717068 85.717068 0 1 0-171.434137 0Z" fill="#FFFFFF" p-id="2499"></path><path d="M513.068522 513.628224m-75.209938 0a75.209938 75.209938 0 1 0 150.419876 0 75.209938 75.209938 0 1 0-150.419876 0Z" fill="#51E4C2" p-id="2500"></path><path d="M712.303304 258.938435v215.644223a76.322981 76.322981 0 0 1-27.081938 58.310758l-44.954236 37.970683" fill="" p-id="2501"></path><path d="M669.765963 573.255553l-41.850435 33.811081a12.720497 12.720497 0 0 1-17.885019-1.901715l-10.49441-12.987627a12.720497 12.720497 0 0 1 1.901715-17.885019l41.850434-33.81108a12.720497 12.720497 0 0 1 17.885019 1.901714l10.49441 12.987627a12.720497 12.720497 0 0 1-1.908075 17.885019z" fill="#F8E71C" p-id="2502"></path><path d="M712.303304 265.298683m-36.278857 0a36.278857 36.278857 0 1 0 72.557714 0 36.278857 36.278857 0 1 0-72.557714 0Z" fill="#FE3D50" p-id="2503"></path><path d="M712.303304 258.938435m-36.278857 0a36.278857 36.278857 0 1 0 72.557714 0 36.278857 36.278857 0 1 0-72.557714 0Z" fill="#FE3D50" p-id="2504"></path><path d="M513.068522 519.988472m-19.017143 0a19.017143 19.017143 0 1 0 38.034286 0 19.017143 19.017143 0 1 0-38.034286 0Z" fill="#51E4C2" p-id="2505"></path><path d="M513.068522 513.628224m-19.017143 0a19.017143 19.017143 0 1 0 38.034286 0 19.017143 19.017143 0 1 0-38.034286 0Z" fill="#FFFFFF" p-id="2506"></path></svg>