<svg t="1688565485911" class="icon" viewBox="0 0 1024 1024" version="1.1" xmlns="http://www.w3.org/2000/svg" p-id="15008" width="200" height="200"><path d="M296.533333 712.832a42.666667 42.666667 0 0 1 0 60.330667l-90.538666 90.538666a42.666667 42.666667 0 0 1-60.330667 0l-30.165333-30.165333a42.666667 42.666667 0 0 1 60.330666-60.373333l60.373334-60.330667a42.666667 42.666667 0 0 1 60.330666 0zM896 768a42.666667 42.666667 0 0 1 0 85.333333H426.666667a42.666667 42.666667 0 0 1 0-85.333333h469.333333zM296.533333 414.165333a42.666667 42.666667 0 0 1 0 60.330667l-90.538666 90.538667a42.666667 42.666667 0 0 1-60.330667 0l-30.165333-30.165334a42.666667 42.666667 0 0 1 60.330666-60.373333l60.373334-60.330667a42.666667 42.666667 0 0 1 60.330666 0zM896 469.333333a42.666667 42.666667 0 0 1 0 85.333334H426.666667a42.666667 42.666667 0 0 1 0-85.333334h469.333333zM296.533333 115.498667a42.666667 42.666667 0 0 1 0 60.330666L205.994667 266.368a42.666667 42.666667 0 0 1-60.330667 0l-30.165333-30.165333A42.666667 42.666667 0 0 1 175.829333 175.786667l60.373334-60.330667a42.666667 42.666667 0 0 1 60.330666 0zM896 170.666667a42.666667 42.666667 0 0 1 0 85.333333H426.666667a42.666667 42.666667 0 1 1 0-85.333333h469.333333z" p-id="15009"></path></svg>