<svg t="1688564626940" class="icon" viewBox="0 0 1024 1024" version="1.1" xmlns="http://www.w3.org/2000/svg" p-id="15204" width="200" height="200"><path d="M626.6 445.6c-9-9-24.1-9-33.2 0L481.8 555.7V110.8c0-12.1-10.6-22.6-22.6-22.6-12.1 0-22.6 9-22.6 22.6v446.4L325 445.6c-9-9-24.1-9-33.2 0-9 9-9 22.6 0 31.7l150.8 149.3c1.5 1.5 4.5 3 7.5 4.5s6 1.5 7.5 1.5 6 0 7.5-1.5c3-1.5 6-3 7.5-4.5l150.8-149.3c10.8-9 10.8-22.6 3.2-31.7zM187.7 797.1c-49.8 0-90.5-40.7-90.5-89V566.3c0-12.1-10.6-22.6-22.6-22.6-12.1 0-22.6 10.6-22.6 22.6v141.8c0 73.9 60.3 134.2 135.7 134.2h345.4c-7.5-13.6-13.6-28.7-18.1-45.2H187.7z m0 0" p-id="15205"></path><path d="M760.9 513.5c-116.1 0-211.2 95-211.2 211.1s95 211.1 211.2 211.1c116.1 0 211.1-95 211.1-211.1s-95-211.1-211.1-211.1z m101 176.5L733.7 803.1c-1.5 1.5-3 1.5-4.5 3-1.5 0-1.5 1.5-3 1.5-3 1.5-6 1.5-7.5 1.5-3 0-6 0-7.5-1.5-3-1.5-4.5-3-6-4.5L660 757.9c-9-9-9-22.6 0-31.7 9-9 22.6-9 31.7 0l30.2 30.2 111.6-99.5c9-7.5 24.1-7.5 31.7 1.5 7.3 8.9 7.3 22.5-3.3 31.6z m0 0" fill="#62ddba" p-id="15206"></path></svg>