<svg t="1688654437030" class="icon" viewBox="0 0 1024 1024" version="1.1" xmlns="http://www.w3.org/2000/svg" p-id="52581" width="200" height="200"><path d="M512.25 963.65a94.853 94.853 0 0 1-72.4-33.49L170.83 613.47a35.006 35.006 0 0 1-5.09-37.36 35.006 35.006 0 0 1 31.77-20.3h89.63V175.85c0-52.38 42.62-95 95-95h260.24c52.38 0 95 42.62 95 95V555.8H827c13.64 0 26.04 7.92 31.77 20.3a35.006 35.006 0 0 1-5.09 37.36l-269.03 316.7a94.853 94.853 0 0 1-72.4 33.49zM273.16 625.81L493.2 884.83c6.51 7.67 14.73 8.81 19.05 8.81s12.54-1.14 19.05-8.81L751.34 625.8h-48.97c-19.33 0-35-15.67-35-35V175.85c0-13.79-11.21-25-25-25H382.13c-13.79 0-25 11.21-25 25V590.8c0 19.33-15.67 35-35 35h-48.97z" p-id="52582"></path></svg>