<svg t="1688648587200" class="icon" viewBox="0 0 1024 1024" version="1.1" xmlns="http://www.w3.org/2000/svg" p-id="1379" width="200" height="200"><path d="M839.111111 184.888889H184.888889c-31.288889 0-56.888889 25.6-56.888889 56.888889v540.444444c0 31.288889 25.6 56.888889 56.888889 56.888889h654.222222c31.288889 0 56.888889-25.6 56.888889-56.888889V241.777778c0-31.288889-25.6-56.888889-56.888889-56.888889z m0 597.333333H184.888889V241.777778h654.222222v540.444444z" p-id="1380"></path><path d="M412.444444 483.555556h-99.555555v-71.111112c0-15.644444-12.8-28.444444-28.444445-28.444444s-28.444444 12.8-28.444444 28.444444v199.111112c0 15.644444 12.8 28.444444 28.444444 28.444444s28.444444-12.8 28.444445-28.444444v-71.111112h99.555555v71.111112c0 15.644444 12.8 28.444444 28.444445 28.444444s28.444444-12.8 28.444444-28.444444V412.444444c0-15.644444-12.8-28.444444-28.444444-28.444444s-28.444444 12.8-28.444445 28.444444v71.111112zM711.111111 384h-99.555555c-31.288889 0-56.888889 25.6-56.888889 56.888889v142.222222c0 31.288889 25.6 56.888889 56.888889 56.888889h21.333333v56.888889c0 15.644444 12.8 28.444444 28.444444 28.444444s28.444444-12.8 28.444445-28.444444v-56.888889H711.111111c31.288889 0 56.888889-25.6 56.888889-56.888889V440.888889c0-31.288889-25.6-56.888889-56.888889-56.888889z m0 199.111111h-99.555555V440.888889h99.555555v142.222222z" p-id="1381"></path></svg>