<svg t="1691757857753" class="icon" viewBox="0 0 1024 1024" version="1.1" xmlns="http://www.w3.org/2000/svg" p-id="4844" width="200" height="200"><path d="M512.32552 76.8c6.4 0 12.8 4 15.2 8.8l0.8 1.6v0.8l117.6 240 12.8 25.6 28 4.8 264 46.4h1.6c5.6 0.8 11.2 5.6 12.8 10.4l0.8 1.6 0.8 1.6c2.4 7.2 0.8 14.4-4.8 20L772.32552 616l-22.4 20.8 5.6 30.4 48 258.4c1.6 10.4-4.8 16.8-8 18.4l-1.6 0.8-1.6 0.8c-0.8 0.8-2.4 1.6-6.4 1.6-1.6 0-5.6-0.8-10.4-3.2l-240-120-24.8-12.8-24.8 12-241.6 120-0.8 0.8-0.8 0.8c-2.4 0.8-4.8 1.6-7.2 1.6-4 0-7.2-0.8-9.6-3.2-5.6-4-8.8-12-8-18.4l49.6-258.4 5.6-30.4-21.6-20L62.72552 440c-5.6-5.6-7.2-15.2-5.6-20.8 2.4-5.6 6.4-11.2 13.6-12h3.2l264-48 28-4.8 12.8-25.6L495.52552 88c4-6.4 10.4-11.2 16.8-11.2m0-56c-28 0-53.6 16.8-66.4 42.4l-118.4 240-264 48c-29.6 3.2-51.2 24-60.8 51.2-7.2 25.6 0 56.8 20 77.6l189.6 176.8-49.6 258.4c-5.6 28 7.2 56.8 29.6 73.6 12.8 9.6 28 13.6 43.2 13.6 12 0 24-3.2 34.4-8.8l241.6-120 240 120c11.2 5.6 24 9.6 35.2 9.6 16.8 0 31.2-5.6 42.4-14.4 22.4-16.8 35.2-44 29.6-73.6l-48-258.4L1000.32552 477.6c20-20 28-49.6 18.4-77.6-7.2-28-31.2-48-59.2-51.2l-264-46.4-117.6-240c-10.4-24.8-38.4-41.6-65.6-41.6z" p-id="4845"></path></svg>