<svg t="1691245596429" class="icon" viewBox="0 0 1024 1024" version="1.1" xmlns="http://www.w3.org/2000/svg" p-id="2339" width="200" height="200"><path d="M153.961412 937.863529l161.008941-102.942117a26.081882 26.081882 0 0 1 35.538823 7.28847c6.023529 9.396706 3.252706 21.805176-6.083764 27.828706L142.998588 998.701176l-2.951529 0.963765-2.349177 0.722824a23.913412 23.913412 0 0 1-9.396706 1.204706 24.816941 24.816941 0 0 1-7.228235-1.325177l-2.349176-1.14447a23.672471 23.672471 0 0 1-5.300706-3.433412l-2.108235-2.409412c-1.325176-1.385412-1.505882-1.626353-2.831059-3.855059a24.515765 24.515765 0 0 1-1.566118-4.638117l-0.843294-3.373177a39.755294 39.755294 0 0 0-0.662588-3.975529C105.411765 351.051294 105.472 37.707294 105.532235 37.466353A20.600471 20.600471 0 0 1 107.941647 25.901176C110.230588 22.226824 114.145882 19.215059 121.554824 16.082824A49.754353 49.754353 0 0 1 130.770824 15.058824c1.204706 0.120471 3.192471 0.542118 6.023529 1.445647l3.192471 0.903529c1.566118 0.602353 2.048 0.843294 2.650352 0.963765l742.038589 449.475764 7.890823 4.216471a26.744471 26.744471 0 0 1 13.793883 23.732706 26.744471 26.744471 0 0 1-13.974589 23.853176l-8.071529 5.300706-45.718588 29.214118a28.129882 28.129882 0 0 1-37.76753-7.168 19.034353 19.034353 0 0 1 5.782589-26.262588l38.490352-24.576L153.961412 78.305882V937.863529z m693.36847-178.597647c13.552941 0 24.274824 10.420706 24.274824 23.130353 0 12.649412-10.721882 23.070118-24.274824 23.070118H661.865412v180.404706c0 12.649412-10.782118 23.070118-24.274824 23.070117a23.732706 23.732706 0 0 1-24.274823-23.070117v-180.404706H427.851294a23.732706 23.732706 0 0 1-24.274823-23.070118c0-12.649412 10.782118-23.130353 24.274823-23.130353h185.524706V578.861176c0-12.649412 10.721882-23.070118 24.214588-23.070117 13.492706 0 24.274824 10.420706 24.274824 23.070117v180.344471h185.524706z" p-id="2340"></path></svg>