<svg t="1688563646935" class="icon" viewBox="0 0 1024 1024" version="1.1" xmlns="http://www.w3.org/2000/svg" p-id="2727" width="200" height="200"><path d="M215.618291 917.834029c-55.520501 0-93.25901-44.607964-93.25901-110.988814l0-671.442362c0-66.38085 37.738509-110.98779 93.285616-110.98779 21.22951 0 43.632753 6.590092 66.121953 19.571754L810.298362 380.317888c39.064714 22.529109 61.195757 55.017034 61.195757 90.87266 0 35.815717-22.01234 68.263733-62.018495 91.362824L282.721595 897.664663C259.224438 911.256216 236.847801 917.834029 215.618291 917.834029zM215.644897 78.729086c-34.794457 0-38.971593 39.634696-38.971593 56.673767l0 671.442362c0 17.040095 4.177136 56.67479 38.944987 56.67479 11.403724 0 25.028023-4.242627 38.965453-12.292977l526.661931-335.111291c23.165606-13.406335 35.933397-29.556153 35.933397-44.925189 0-15.408945-12.728906-31.598672-34.967396-44.435025L253.588067 90.424452C240.66064 82.985016 227.061924 78.729086 215.644897 78.729086z" p-id="2728"></path><path d="M485.556233 647.034463c-4.52199 0-8.924253-2.240017-11.510148-6.351662-3.990894-6.338359-2.081405-14.719236 4.25593-18.723434l7.333012-4.615111c6.351662-3.978614 14.731516-2.094708 18.723434 4.270257 4.00522 6.337335 2.095731 14.718213-4.25593 18.72241l-7.333012 4.616134C490.528478 646.357034 488.022401 647.034463 485.556233 647.034463z" p-id="2729"></path><path d="M286.639834 772.143878c-4.520967 0-8.924253-2.240017-11.510148-6.351662-3.990894-6.337335-2.081405-14.731516 4.269233-18.72241l152.386666-95.859231c6.338359-3.964288 14.719236-2.094708 18.723434 4.270257 3.990894 6.337335 2.082428 14.731516-4.269233 18.723434l-152.386666 95.858208C291.612079 771.468496 289.106002 772.143878 286.639834 772.143878z" p-id="2730"></path></svg>