<svg t="1691488901995" class="icon" viewBox="0 0 1024 1024" version="1.1" xmlns="http://www.w3.org/2000/svg" p-id="8669" width="200" height="200"><path d="M841.152 199.402667a36.992 36.992 0 0 1 3.2 73.856l-3.2 0.149333H238.976a73.984 73.984 0 0 0-73.877333 69.909333l-0.106667 4.053334v76.885333a36.992 36.992 0 0 1-73.856 3.2l-0.128-3.2v-76.864a147.968 147.968 0 0 1 142.890667-147.904l5.077333-0.085333H841.173333z" fill="#000000" p-id="8670"></path><path d="M723.733333 80.341333a36.992 36.992 0 0 1 49.706667-2.069333l2.602667 2.410667 146.282666 148.266666c13.376 13.568 14.165333 34.88 2.368 49.344l-2.346666 2.624-146.304 148.266667a36.992 36.992 0 0 1-55.04-49.28l2.368-2.666667 120.64-122.304-120.64-122.282666a36.992 36.992 0 0 1-2.048-49.706667l2.410666-2.602667z" fill="#000000" p-id="8671"></path><path d="M182.848 824.597333a36.992 36.992 0 0 1-3.2-73.856l3.2-0.149333h602.176a73.984 73.984 0 0 0 73.877333-69.909333l0.106667-4.053334v-76.885333a36.992 36.992 0 0 1 73.856-3.2l0.128 3.2v76.864a147.968 147.968 0 0 1-142.890667 147.904l-5.077333 0.085333H182.826667z" fill="#000000" p-id="8672"></path><path d="M300.266667 943.658667a36.992 36.992 0 0 1-49.706667 2.069333l-2.602667-2.410667-146.282666-148.266666a36.992 36.992 0 0 1-2.368-49.344l2.346666-2.624 146.304-148.266667a36.992 36.992 0 0 1 55.04 49.28l-2.368 2.666667-120.64 122.304 120.64 122.282666c13.504 13.696 14.144 35.242667 2.048 49.706667l-2.410666 2.602667z" p-id="8673"></path></svg>