<svg t="1691489015075" class="icon" viewBox="0 0 1024 1024" version="1.1" xmlns="http://www.w3.org/2000/svg" p-id="17567" width="200" height="200"><path d="M981.835294 472.244706c-21.684706 0-36.141176 14.456471-36.141176 36.141176v97.581177c0 122.88-97.581176 224.075294-224.075294 224.075294h-560.188236l53.007059-49.392941c7.228235-7.228235 14.456471-18.070588 14.456471-28.912941 0-21.684706-18.070588-39.755294-39.755294-39.755295-10.842353 0-25.298824 3.614118-32.527059 10.842353L27.708235 840.884706c-18.070588 14.456471-14.456471 39.755294 0 54.211765l122.88 108.423529c7.228235 7.228235 21.684706 14.456471 32.527059 14.456471 21.684706 0 39.755294-14.456471 43.369412-36.141177 0-14.456471-7.228235-25.298824-18.070588-32.527059l-54.211765-50.597647h563.802353c166.249412 0 299.971765-133.722353 299.971765-292.743529V508.385882c0-21.684706-14.456471-36.141176-36.141177-36.141176zM42.164706 562.597647c21.684706 0 36.141176-14.456471 36.141176-36.141176V425.261176c0-126.494118 101.195294-227.689412 224.075294-231.303529h560.188236l-53.007059 49.392941c-7.228235 7.228235-14.456471 18.070588-14.456471 28.912941 0 21.684706 18.070588 39.755294 39.755294 39.755295 10.842353 0 25.298824-3.614118 32.527059-10.842353l125.289412-118.061177c18.070588-14.456471 14.456471-39.755294 0-54.211765l-122.88-108.423529C862.569412 13.251765 848.112941 6.023529 837.270588 6.023529c-21.684706 0-39.755294 14.456471-43.369412 36.141177 0 14.456471 7.228235 25.298824 18.070589 32.527059l54.211764 50.597647h-560.188235C139.745882 125.289412 6.023529 259.011765 6.023529 428.875294v97.581177c0 21.684706 14.456471 36.141176 36.141177 36.141176z" p-id="17568"></path><path d="M564.043294 677.888V359.303529c0-24.756706-20.058353-44.815059-44.815059-44.815058-9.396706 0-18.552471 2.951529-26.202353 8.432941l-70.113882 50.477176a27.081788 27.081788 0 0 0-9.456941 31.62353c6.264471 16.263529 26.081882 22.467765 40.478117 12.589176l46.863059-32.045176v292.261647a31.623529 31.623529 0 1 0 63.247059 0z" p-id="17569"></path></svg>